<?xml version="1.0" encoding="UTF-8" standalone="no"?>
<svg width="571px" height="633px" viewBox="0 0 571 633" version="1.1" xmlns="http://www.w3.org/2000/svg" xmlns:xlink="http://www.w3.org/1999/xlink">
    <!-- Generator: Sketch 39.1 (31720) - http://www.bohemiancoding.com/sketch -->
    <title>Slice 1</title>
    <desc>Created with Sketch.</desc>
    <defs></defs>
    <g id="Page-1" stroke="none" stroke-width="1" fill="none" fill-rule="evenodd">
        <path d="M443.6,89.9 C442.5,90.2 441.6,88.8 440.9,88.2 C427.4,75.8 409.9,65.1 388.6,60 C387.5,53.3 392.4,52.1 399.7,52.6 C420.1,54.3 437.8,73.4 443.6,89.9 L443.6,89.9 Z" id="Shape" fill="#C7AA4E"></path>
        <path d="M192.1,137.9 C216.9,136.3 235.5,152 246.1,166.7 C251.1,173.7 256.3,183.7 259.5,194.5 C262.7,205.3 264.9,219 259.8,228.7 C249.8,247.8 220.9,250.8 210.2,271 C206.5,278 205.9,288.4 197.1,290.8 C185.1,294.1 173.8,285.3 166.6,279.1 C149.4,264.4 135.1,242.2 135.1,212 C135,181.9 146.8,158 166.6,145.6 C173.4,141.4 182.4,138.5 192.1,137.9 L192.1,137.9 Z" id="Shape" fill="#C7AA4E"></path>
        <path d="M441.6,138.9 C463.1,138.8 477.6,149.8 486.9,162.4 C496.4,175.3 503.2,192 502.3,215.7 C501.1,246.4 485.8,268.7 465.7,282.1 C458.1,287.2 446.1,292.3 437.2,287.8 C430.5,284.4 429.5,274.6 424.8,266.7 C419.7,258 411.7,252.8 403,247.2 C391.5,239.9 377.5,231.6 377.2,213.7 C377,204.3 380.5,191.9 383.2,184.9 C389.9,167.8 399.2,155.4 414.1,146.7 C421.5,142.3 430.5,139 441.6,138.9 L441.6,138.9 Z" id="Shape" fill="#C7AA4E"></path>
        <path d="M330.6,276.8 C333.7,280.6 336.5,287.3 340,295.2 C343.1,302.3 349.9,317 341.3,320 C336.2,321.8 332,318.7 328.9,316.6 C329.2,303 330.3,291 330.6,276.8 L330.6,276.8 Z" id="Shape" fill="#C7AA4E"></path>
        <path d="M327.2,277.5 C327.3,290.4 326.1,303.4 325.5,317.8 C321,321.1 311.6,322.2 309.4,316.1 C310.6,298.4 320.7,289.7 327.2,277.5 L327.2,277.5 Z" id="Shape" fill="#C7AA4E"></path>
        <path d="M149.8,314 C152.4,312.9 153.2,315.5 155.2,315.7 C156.2,315.8 157.4,314.7 158.9,315 C168.1,316.8 166,337.9 152.9,335.5 C150.8,335.1 142.6,329.9 141.8,327.4 C140.5,323.6 143,318.6 149.2,320.4 C150.9,319.5 150.3,316.4 153.2,316.7 C152.7,315.1 151.1,314.7 149.8,314 L149.8,314 Z" id="Shape" fill="#C7AA4E"></path>
        <path d="M161.5,411.6 C161.8,411.5 161.8,411.7 161.8,411.9 C163.1,427.8 158.9,438.5 155.4,450.8 C154.3,454.8 153.6,460.1 150,460.5 C144.7,461.2 141.8,453.5 141.3,449.4 C139.3,433 155.3,419.1 161.5,411.6 L161.5,411.6 Z" id="Shape"></path>
        <path d="M193.4,467.6 L193.4,457.5 C193.4,455.9 196.5,457.5 197.1,456.5 L197.1,430.3 C196.6,429.3 193.9,430.6 193.4,429.6 C193.6,426.4 193,422.2 193.7,419.5 C203.6,419.7 223.1,418.1 235.3,419.2 C247.5,420.3 244.7,432.1 244.7,445.7 C244.7,456.1 246.7,466.1 238,467.5 C225.6,469.7 206.1,466.1 193.4,467.6 L193.4,467.6 Z M208.8,430.4 C208,438.5 208.7,448 208.5,456.6 C216.5,456.2 226.1,457.4 233,455.9 C233.6,448.4 233.6,438.6 233,431.1 C226.2,429.6 216.7,430.8 208.8,430.4 L208.8,430.4 Z" id="Shape" fill="#C7AA4E"></path>
        <path d="M257.1,419.7 C262.6,418.8 271.2,419.4 279.6,419.4 C287.4,419.4 296.3,419.1 299.1,422.1 C302.7,425.9 301.1,435.5 301.1,443.6 C301.1,450.8 302.5,460.9 299.8,464.7 C296.6,469.2 284.2,467.7 276,467.7 C268.3,467.7 255.7,469.4 251.8,465.4 C248.8,462.2 249.8,451.6 249.8,444.6 C249.8,431.3 247,421.3 257.1,419.7 L257.1,419.7 Z M261.8,431.4 C260.7,438.1 260.7,449.2 261.8,455.9 C269.3,457 281.4,457 289,455.9 C289.4,449.5 290,437 288.7,431.1 C281.4,429.6 271.3,430.8 262.9,430.4 C262.4,430.6 262,430.9 261.8,431.4 L261.8,431.4 Z" id="Shape" fill="#C7AA4E"></path>
        <path d="M324.6,419.7 L324.6,430.4 L320.6,430.4 C320.8,438.8 320.2,448 320.9,455.9 C325.8,457.7 336.2,457.2 341.7,456.2 C343.2,449 342,439 342.4,430.7 C341.7,429.9 339.6,430.6 338.4,430.4 L338.4,419.7 C343,419.3 351.9,419.1 357.5,419.7 L357.5,430.4 C356.6,430.7 354.4,431 353.5,430.4 C351.6,442.7 357.9,464.1 348.8,467.3 C344.4,468.8 336.7,467.6 331.4,467.6 C323.2,467.6 312.6,469.2 310.3,462.9 C307.3,454.7 311.2,440.3 309.6,430.4 C309,429.5 306.5,430.6 305.9,429.7 C307.2,426.8 304.9,420.7 306.9,419.3 C311.4,419.7 319.4,418.8 324.6,419.7 L324.6,419.7 Z" id="Shape" fill="#C7AA4E"></path>
        <path d="M413.1,419.3 C413.9,424.4 413.2,431 413.4,436.7 L401.3,436.7 C401.2,434.6 401.1,432.4 400.6,430.7 C392.6,430.3 381.5,429.7 374.1,431 C372.8,437.9 373.4,448.4 373.8,455.8 C381,457.1 391.9,456.5 399.6,456.1 C401.2,454.9 401.1,453.6 401.3,451.4 C400.4,450.6 398.1,451.3 396.6,451.1 C396.5,448.9 396.8,442.3 396.6,441 C402.9,440.2 410.6,440.9 417.4,440.7 C417.1,443 417.6,447.4 417.4,450.8 L413.4,450.8 L413.4,467.6 C409.6,467.2 402.6,468.4 401,466.9 C391,466.9 378.5,469.2 368.5,467.6 C359.9,466.2 361.8,456.2 361.8,444.1 C361.8,429.9 359.5,420.8 371.2,419.6 C385.2,418.2 400.4,420.2 413.1,419.3 L413.1,419.3 Z" id="Shape" fill="#C7AA4E"></path>
        <path d="M418.5,419.3 L438.3,419.3 L438.3,430.4 L433.6,430.4 L433.6,439.1 C440.1,439.9 448,439.2 455.1,439.4 C455.7,437.7 454.5,433.5 455.4,430.7 C454.5,430 452.5,430.5 451,430.4 C450.9,428.9 451,422.2 451,419.7 C455.5,419.2 466,419.1 470.5,419.7 L470.5,430.4 C469.5,430.8 468.4,430.7 466.5,430.7 L466.5,456.5 C467.3,457.3 469.5,456.6 470.9,456.8 L470.9,467.5 L451.1,467.5 L451.1,456.8 L455.1,456.8 C455.4,455.5 454.9,452.4 455.1,450.1 C450,449.3 439.2,450 433.6,449.8 L433.6,456.5 C434.3,457.3 436.4,456.6 437.6,456.8 L437.6,467.5 L418.5,467.5 L418.5,456.8 L422.5,456.8 L422.5,430.6 C421.8,429.8 419.7,430.5 418.5,430.3 L418.5,419.3 L418.5,419.3 Z" id="Shape" fill="#C7AA4E"></path>
        <path d="M233,431.1 C233.6,438.6 233.6,448.4 233,455.9 C226.1,457.4 216.5,456.2 208.5,456.6 C208.7,448 208.1,438.5 208.8,430.4 C216.7,430.8 226.2,429.6 233,431.1 L233,431.1 Z" id="Shape"></path>
        <path d="M262.8,430.4 C271.2,430.8 281.3,429.5 288.6,431.1 C289.9,437 289.3,449.5 288.9,455.9 C281.4,457 269.3,457 261.7,455.9 C260.6,449.2 260.6,438.1 261.7,431.4 C262,430.9 262.4,430.6 262.8,430.4 L262.8,430.4 Z" id="Shape"></path>
        <path d="M231.3,509.9 C204.2,493.6 164,495.9 129,490.4 C94.3,485 71.6,467.1 57.6,439.7 C43.7,412.7 36.7,379.2 32.4,342.4 C28.3,307.2 28.8,264.6 35.4,229.4 C48.1,162.2 78.9,109.7 121.9,71.4 C159.5,37.9 206.2,12.3 267.5,3 C330.1,-6.5 387.4,13 426.2,37.2 C461.1,59.1 488.5,87.4 510.7,119.4 C533,151.4 551,190.2 561.7,235.1 C567.3,258.6 570.6,282.8 570.1,310.2 C569.1,362 555.8,407.9 541.3,448.1 C534.1,468.1 525.7,487.7 515.8,506.1 C496.1,542.9 473.4,576.5 444.7,601.7 C429.4,615.1 413.4,626.6 390.4,630.9 C362.8,636 342.8,625.5 328.3,612.5 C313,598.8 304.5,582.1 292.4,564.9 C281,548.6 268.6,533.7 252.1,522 C250.1,520.6 241.1,520.5 236,520 C221.5,518.4 203.6,518.1 189.7,517.3 C168.8,516.2 146.2,515.3 125.3,513.9 C103.2,512.5 84.6,512.1 60.9,511.2 C48.2,510.7 26.7,510.2 12.9,509.5 C5.9,509.2 0.1,510.2 0.5,503.5 C1,495.5 19.1,498.9 25.3,499.1 C56.1,500.4 87.3,500.1 115.2,501.4 C136.3,502.4 156.2,502.1 174.6,504.1 C193.4,506.3 211.4,507.6 231.3,509.9 L231.3,509.9 Z M135,99.7 C141.1,92.8 149.5,88.2 158.1,83.9 C160.4,77.5 164.6,73 164.5,64.1 C168.8,57 175.9,53.1 182.6,48.3 C186.5,45.5 192,43.1 192.3,37.6 C145.1,61 108,93.3 81.7,137.9 C55.5,182.3 38.5,237.9 41.1,308 C42.4,341.7 46.9,371.8 54.5,399.9 C61.9,427.2 73.8,452.5 94.1,466 C104.8,473.1 118,477.5 133,479.8 C148,482 164.6,482.4 181.3,484.5 C208.9,488 231.9,495.9 250.4,507.6 C253.1,509.3 256.1,511.8 258.8,512.6 C264.2,514.3 272.1,514.2 278.9,514.9 C313.7,518.9 351,517.4 386.6,518.6 C393.6,518.8 400.9,519.3 408.1,519.3 C415.6,519.3 423.1,520.2 430.6,519.6 C446.7,518.4 461.6,511.2 472.5,503.5 C484.4,495.1 492.6,484.4 496.7,469.6 C506.2,435.1 491.8,399.4 481.6,374.7 C479.8,375.2 478.9,377.4 477.6,379.1 C473.6,384 469,390.1 463.5,392.9 C449.3,400.1 443.9,383.4 438.7,375.5 C433.7,379 428.7,382.8 422.3,382.9 C414.9,383 406.3,378.2 398.8,374.5 C392.5,371.4 382.6,365.4 375,366.8 C371.4,367.4 367.8,371.4 364.9,372.8 C350.5,380.2 328.3,375.7 309.9,373.5 C291.2,371.2 272.7,369.5 254.2,368.8 C252.3,376.1 258.7,390.3 248.8,389.9 C243.9,389.7 243.4,385 241.8,380.2 C240.5,376.5 238.3,369.6 235.4,369.5 C232.4,369.3 228.5,376.8 226.3,380.2 C223.1,385.3 221.2,390.8 217.2,391.3 C209.6,392.1 210.9,385.5 209.8,381.9 C209.1,379.5 206.1,375.6 204.8,373.2 C203.6,371 200.8,364.7 199.1,364.8 C198.7,364.8 196.7,367.9 195.7,369.2 C189.1,377.7 184.4,383.4 178.3,391.3 C176.4,393.7 172,398 171.6,400.4 C171.2,403.1 172.4,406.9 172.6,409.8 C173.3,420.5 172.7,429.5 170.9,439 C168.7,450.5 165,468.2 154.5,471.2 C140,475.4 131.3,461.4 130.3,450.1 C129.1,436.3 135.4,426.2 141,418.9 C143.6,415.6 147.4,410.9 150.4,407.5 C152.4,405.2 159.6,399.1 160.1,396.1 C160.4,394.1 159,389.3 158.4,386 C157.8,382.7 156.9,379.2 156.4,376.3 C155.1,369.4 149.3,352.4 159.1,352.8 C164.8,353 164.7,360.8 165.8,366.9 C167,373.4 168.2,378.2 169.2,384.7 C173.3,380.2 178.1,374.3 183,368.3 C186.9,363.5 191.2,353.8 198.4,353.2 C209,352.4 213.8,367.8 217.9,373.7 C221.3,365 234.3,352 244.7,362.6 C247.9,355.8 255.8,358.1 263.8,358.9 C286.5,361.1 306.3,363.2 328.9,364.3 C337.3,364.7 346.6,366.2 353.7,365.3 C359.1,364.6 363.5,359.6 367.1,357.9 C378.8,352.5 390.9,358.6 400.3,363.3 C407.1,366.7 423.3,377.4 429.8,368.3 C430.9,366.8 430.3,364.7 431.1,362.9 C435.3,353.5 445.6,366.3 447.9,369.6 C451.3,374.5 453.9,379.9 456.3,383.7 C461.8,380.9 465,376.3 469.4,371.3 C472.6,367.6 477.1,359 483.5,359.6 C487.4,360 488.5,364.1 490.2,367.7 C500.6,390 510.2,415.2 510.7,445.5 C511.3,482.3 494,505.4 471.5,518.3 C465.5,521.8 458.8,524.4 451.7,526.3 C443.8,528.4 435.5,528.2 426.2,529 C409.4,530.4 390.6,531.8 374.2,533 C357,534.3 340,531.1 323.2,529.3 C306.2,527.5 289.8,525.9 272.5,524.3 C286.5,538.4 299.6,554.2 310.4,571.9 C321.4,589.8 333.2,606.9 352.7,616.2 C376.5,627.5 402.7,618.1 419.5,607.5 C437.4,596.1 451.3,581.2 464.1,565.6 C489.5,534.6 509.7,497.1 526.5,455.2 C543.3,413.3 556.2,367.8 558.7,314.3 C560,285.9 555.7,260.9 550.3,237.2 C534.5,168.1 499.8,112.6 454.7,73.2 C424.9,47.2 387.8,24.3 339.6,15.5 C284.8,5.5 232.3,19.2 194.7,37 C193.3,45.4 187.6,48.1 181.6,52.8 C178.5,55.2 172.5,58.4 172.9,61.5 C173.6,67.3 183.7,66.7 187,70.9 C187.9,74.4 189.8,77 191.7,79.6 C196.1,80.4 199.5,82.3 202.8,84.3 C204.2,88.3 206.1,92 207.8,95.7 C202.5,90.4 199.9,82.3 190,81.6 C188.1,78.5 185.8,75.7 184.3,72.2 C181.5,70 177.1,69.3 174.2,67.2 C172.3,65.8 172.2,62.7 169.8,62.5 C167.5,66 166.7,70.4 165.1,74.2 C163.4,78.2 161.7,82.1 160.1,85.9 C155.5,89 149.2,90.6 144.7,94 C143,95.3 138.5,100 137.7,101.7 C136.6,103.8 136.2,106.4 135,108.7 C133.9,110.8 133.1,112.8 131.6,114.4 C133,109.4 134.2,104.7 135,99.7 L135,99.7 Z M141.4,449.5 C141.9,453.5 144.8,461.3 150.1,460.6 C153.7,460.1 154.3,454.9 155.5,450.9 C159,438.6 163.2,427.9 161.9,412 C161.9,411.8 161.8,411.6 161.6,411.7 C155.3,419.1 139.3,433 141.4,449.5 L141.4,449.5 Z" id="Shape" fill="#C7AA4E"></path>
    </g>
</svg>